<svg width="121" height="25" viewBox="0 0 121 25" fill="none" xmlns="http://www.w3.org/2000/svg">
<path d="M12.376 24.32C10.1147 24.32 8.06667 23.8293 6.232 22.848C4.41867 21.8453 2.98933 20.4693 1.944 18.72C0.92 16.9707 0.408 14.9973 0.408 12.8C0.408 10.6027 0.930667 8.62933 1.976 6.88C3.02133 5.13067 4.45067 3.76533 6.264 2.784C8.09867 1.78133 10.1467 1.28 12.408 1.28C14.2427 1.28 15.9173 1.6 17.432 2.24C18.9467 2.88 20.2267 3.808 21.272 5.024L18.584 7.552C16.9627 5.80267 14.968 4.928 12.6 4.928C11.064 4.928 9.688 5.26933 8.472 5.952C7.256 6.61333 6.30667 7.54133 5.624 8.736C4.94133 9.93067 4.6 11.2853 4.6 12.8C4.6 14.3147 4.94133 15.6693 5.624 16.864C6.30667 18.0587 7.256 18.9973 8.472 19.68C9.688 20.3413 11.064 20.672 12.6 20.672C14.968 20.672 16.9627 19.7867 18.584 18.016L21.272 20.576C20.2267 21.792 18.936 22.72 17.4 23.36C15.8853 24 14.2107 24.32 12.376 24.32ZM31.929 24.224C30.201 24.224 28.6437 23.8507 27.257 23.104C25.8703 22.3573 24.7823 21.3227 23.993 20C23.225 18.656 22.841 17.1413 22.841 15.456C22.841 13.7707 23.225 12.2667 23.993 10.944C24.7823 9.62133 25.8703 8.58667 27.257 7.84C28.6437 7.09333 30.201 6.72 31.929 6.72C33.6783 6.72 35.2463 7.09333 36.633 7.84C38.0197 8.58667 39.097 9.62133 39.865 10.944C40.6543 12.2667 41.049 13.7707 41.049 15.456C41.049 17.1413 40.6543 18.656 39.865 20C39.097 21.3227 38.0197 22.3573 36.633 23.104C35.2463 23.8507 33.6783 24.224 31.929 24.224ZM31.929 20.8C33.401 20.8 34.617 20.3093 35.577 19.328C36.537 18.3467 37.017 17.056 37.017 15.456C37.017 13.856 36.537 12.5653 35.577 11.584C34.617 10.6027 33.401 10.112 31.929 10.112C30.457 10.112 29.241 10.6027 28.281 11.584C27.3423 12.5653 26.873 13.856 26.873 15.456C26.873 17.056 27.3423 18.3467 28.281 19.328C29.241 20.3093 30.457 20.8 31.929 20.8ZM52.554 24.224C50.826 24.224 49.2687 23.8507 47.882 23.104C46.4953 22.3573 45.4073 21.3227 44.618 20C43.85 18.656 43.466 17.1413 43.466 15.456C43.466 13.7707 43.85 12.2667 44.618 10.944C45.4073 9.62133 46.4953 8.58667 47.882 7.84C49.2687 7.09333 50.826 6.72 52.554 6.72C54.3033 6.72 55.8713 7.09333 57.258 7.84C58.6447 8.58667 59.722 9.62133 60.49 10.944C61.2793 12.2667 61.674 13.7707 61.674 15.456C61.674 17.1413 61.2793 18.656 60.49 20C59.722 21.3227 58.6447 22.3573 57.258 23.104C55.8713 23.8507 54.3033 24.224 52.554 24.224ZM52.554 20.8C54.026 20.8 55.242 20.3093 56.202 19.328C57.162 18.3467 57.642 17.056 57.642 15.456C57.642 13.856 57.162 12.5653 56.202 11.584C55.242 10.6027 54.026 10.112 52.554 10.112C51.082 10.112 49.866 10.6027 48.906 11.584C47.9673 12.5653 47.498 13.856 47.498 15.456C47.498 17.056 47.9673 18.3467 48.906 19.328C49.866 20.3093 51.082 20.8 52.554 20.8ZM75.771 23.072C75.3017 23.456 74.7257 23.744 74.043 23.936C73.3817 24.128 72.6777 24.224 71.931 24.224C70.0537 24.224 68.603 23.7333 67.579 22.752C66.555 21.7707 66.043 20.3413 66.043 18.464V10.24H63.227V7.04H66.043V3.136H70.043V7.04H74.619V10.24H70.043V18.368C70.043 19.2 70.2457 19.84 70.651 20.288C71.0563 20.7147 71.643 20.928 72.411 20.928C73.307 20.928 74.0537 20.6933 74.651 20.224L75.771 23.072ZM94.563 15.552C94.563 15.8293 94.5417 16.224 94.499 16.736H81.091C81.3257 17.9947 81.9337 18.9973 82.915 19.744C83.9177 20.4693 85.155 20.832 86.627 20.832C88.5043 20.832 90.051 20.2133 91.267 18.976L93.411 21.44C92.643 22.3573 91.6723 23.0507 90.499 23.52C89.3257 23.9893 88.003 24.224 86.531 24.224C84.6537 24.224 83.0003 23.8507 81.571 23.104C80.1417 22.3573 79.0323 21.3227 78.243 20C77.475 18.656 77.091 17.1413 77.091 15.456C77.091 13.792 77.4643 12.2987 78.211 10.976C78.979 9.632 80.035 8.58667 81.379 7.84C82.723 7.09333 84.2377 6.72 85.923 6.72C87.587 6.72 89.0697 7.09333 90.371 7.84C91.6937 8.56533 92.7177 9.6 93.443 10.944C94.1897 12.2667 94.563 13.8027 94.563 15.552ZM85.923 9.92C84.643 9.92 83.555 10.304 82.659 11.072C81.7843 11.8187 81.251 12.8213 81.059 14.08H90.755C90.5843 12.8427 90.0617 11.84 89.187 11.072C88.3123 10.304 87.2243 9.92 85.923 9.92ZM98.4053 0.255999H102.405V24H98.4053V0.255999ZM112.935 24.224C111.549 24.224 110.194 24.0427 108.871 23.68C107.549 23.3173 106.493 22.8587 105.703 22.304L107.239 19.264C108.007 19.776 108.925 20.192 109.991 20.512C111.079 20.8107 112.146 20.96 113.191 20.96C115.581 20.96 116.775 20.3307 116.775 19.072C116.775 18.4747 116.466 18.0587 115.847 17.824C115.25 17.5893 114.279 17.3653 112.935 17.152C111.527 16.9387 110.375 16.6933 109.479 16.416C108.605 16.1387 107.837 15.6587 107.175 14.976C106.535 14.272 106.215 13.3013 106.215 12.064C106.215 10.4427 106.887 9.152 108.231 8.192C109.597 7.21067 111.431 6.72 113.735 6.72C114.909 6.72 116.082 6.85867 117.255 7.136C118.429 7.392 119.389 7.744 120.135 8.192L118.599 11.232C117.149 10.3787 115.517 9.952 113.703 9.952C112.53 9.952 111.634 10.1333 111.015 10.496C110.418 10.8373 110.119 11.296 110.119 11.872C110.119 12.512 110.439 12.9707 111.079 13.248C111.741 13.504 112.754 13.7493 114.119 13.984C115.485 14.1973 116.605 14.4427 117.479 14.72C118.354 14.9973 119.101 15.4667 119.719 16.128C120.359 16.7893 120.679 17.728 120.679 18.944C120.679 20.544 119.986 21.824 118.599 22.784C117.213 23.744 115.325 24.224 112.935 24.224Z" fill="#192252"/>
</svg>
